<svg xmlns:xlink="http://www.w3.org/1999/xlink" viewBox="0 0 25 25" fill="none" xmlns="http://www.w3.org/2000/svg" width="40" height="40" preserveAspectRatio="xMidYMid meet"><g id="Style=Stroke" fill="none"><path id="vector" d="M11.9663 19.6879L12.9974 15.5647C13.2591 14.5182 12.6438 13.4527 11.6066 13.1564L10.2445 12.7673C8.67247 12.3182 8.29682 10.2574 9.58502 9.25066C10.7329 8.3536 12.3739 8.39951 13.4558 9.37508L14.5982 10.4052C15.1651 10.9163 15.8664 11.2546 16.6193 11.3801L18.4663 11.6879M17.9663 8.18787C19.0709 8.18787 19.9663 7.29244 19.9663 6.18787C19.9663 5.0833 19.0709 4.18787 17.9663 4.18787C16.8617 4.18787 15.9663 5.0833 15.9663 6.18787C15.9663 7.29244 16.8617 8.18787 17.9663 8.18787ZM18.9663 20.6879C20.6232 20.6879 21.9663 19.3448 21.9663 17.6879C21.9663 16.031 20.6232 14.6879 18.9663 14.6879C17.3094 14.6879 15.9663 16.031 15.9663 17.6879C15.9663 19.3448 17.3094 20.6879 18.9663 20.6879ZM5.96631 20.6879C7.62316 20.6879 8.96631 19.3448 8.96631 17.6879C8.96631 16.031 7.62316 14.6879 5.96631 14.6879C4.30946 14.6879 2.96631 16.031 2.96631 17.6879C2.96631 19.3448 4.30946 20.6879 5.96631 20.6879Z" stroke="#FFFFFF" stroke-width="2px" stroke-linecap="round" stroke-linejoin="round" fill="none"></path></g></svg>