<svg xmlns="http://www.w3.org/2000/svg" width="24" height="24" fill="none" viewBox="0 0 24 24">
  <path stroke="#F1F3F4" stroke-linecap="round" stroke-linejoin="round" stroke-width="2" d="M8 2v2.128M8 6V4.128M16 2v2.128M16 6V4.128m-8 0c-.498.067-.915.17-1.296.329a6 6 0 0 0-3.247 3.247C3.203 8.316 3.09 9.018 3.04 10 3 10.788 3 11.755 3 13c0 2.796 0 4.194.457 5.296a6 6 0 0 0 3.247 3.247C7.807 22 9.204 22 12 22c2.796 0 4.194 0 5.296-.457a6 6 0 0 0 3.247-3.247C21 17.194 21 15.796 21 13c0-1.245 0-2.212-.04-3m0 0c-.05-.982-.163-1.684-.417-2.296a6 6 0 0 0-3.247-3.247A5.136 5.136 0 0 0 16 4.127M20.96 10H3.04M8 4.128C8.941 4 10.172 4 12 4c1.828 0 3.059 0 4 .128M8.01 14H8m.01 4H8m4.01-4H12m.01 4H12m4.01-4H16m.01 4H16"/>
</svg>
