<svg width="20" height="20" viewBox="0 0 20 20" fill="none" xmlns="http://www.w3.org/2000/svg">
<path d="M7.5 3.53002V14.3634M12.5 5.63658V16.4699M8.69257 3.92959L11.3197 5.24314C11.7449 5.45577 11.9576 5.56209 12.1802 5.60562C12.3914 5.6469 12.6086 5.6469 12.8198 5.60562C13.0424 5.56209 13.2551 5.45577 13.6803 5.24314C14.9227 4.62194 15.5439 4.31134 16.0494 4.37743C16.5232 4.43936 16.9476 4.70166 17.2148 5.09772C17.5 5.52027 17.5 6.21478 17.5 7.60382V12.5185C17.5 13.1168 17.5 13.4159 17.4089 13.68C17.3284 13.9136 17.1969 14.1263 17.024 14.3028C16.8286 14.5024 16.561 14.6361 16.0259 14.9037L13.6926 16.0704C13.2553 16.289 13.0367 16.3983 12.8073 16.4413C12.6042 16.4794 12.3958 16.4794 12.1927 16.4413C11.9633 16.3983 11.7447 16.289 11.3074 16.0704L8.68034 14.7568C8.25507 14.5442 8.04244 14.4379 7.81978 14.3943C7.60859 14.353 7.39141 14.353 7.18022 14.3943C6.95756 14.4379 6.74493 14.5442 6.31966 14.7568C5.07727 15.378 4.45608 15.6886 3.95062 15.6225C3.47684 15.5606 3.05243 15.2983 2.78515 14.9022C2.5 14.4797 2.5 13.7852 2.5 12.3961V7.4814C2.5 6.88313 2.5 6.584 2.59109 6.31991C2.67165 6.08637 2.80311 5.87366 2.97597 5.69716C3.17144 5.49758 3.43899 5.36381 3.9741 5.09626L6.30743 3.92959C6.7447 3.71095 6.96334 3.60164 7.19267 3.55861C7.39578 3.5205 7.60421 3.5205 7.80733 3.55861C8.03666 3.60164 8.2553 3.71095 8.69257 3.92959Z" stroke="#F1F3F4" stroke-width="2" stroke-linecap="round" stroke-linejoin="round"/>
</svg>
