<svg width="20" height="20" viewBox="0 0 20 20" fill="none" xmlns="http://www.w3.org/2000/svg">
<path d="M18.3324 8.33333H17.5C16.3391 8.33333 15.7587 8.33333 15.2699 8.38358C10.7525 8.84798 7.18127 12.4192 6.71687 16.9366C6.69965 17.1041 6.68833 17.2824 6.68089 17.4911M6.68089 17.4911C5.38982 17.4669 4.59234 17.3774 3.94167 17.0459C3.15766 16.6464 2.52024 16.009 2.12077 15.225C1.66663 14.3337 1.66663 13.1669 1.66663 10.8333V9.16667C1.66663 6.83311 1.66663 5.66634 2.12077 4.77504C2.52024 3.99103 3.15766 3.35361 3.94167 2.95414C4.83296 2.5 5.99974 2.5 8.33329 2.5H11.6666C14.0002 2.5 15.167 2.5 16.0583 2.95414C16.8423 3.35361 17.4797 3.99103 17.8792 4.77504C18.2757 5.55331 18.326 6.54161 18.3324 8.33333C18.3333 8.59356 18.3333 8.87073 18.3333 9.16667V10.8333C18.3333 13.1669 18.3333 14.3337 17.8792 15.225C17.4797 16.009 16.8423 16.6464 16.0583 17.0459C15.167 17.5 14.0002 17.5 11.6666 17.5H8.33329C7.7033 17.5 7.15835 17.5 6.68089 17.4911ZM6.24996 7.91667C5.78972 7.91667 5.41663 7.54357 5.41663 7.08333C5.41663 6.6231 5.78972 6.25 6.24996 6.25C6.7102 6.25 7.08329 6.6231 7.08329 7.08333C7.08329 7.54357 6.7102 7.91667 6.24996 7.91667Z" stroke="#F1F3F4" stroke-width="2" stroke-linecap="round" stroke-linejoin="round"/>
</svg>
