<svg xmlns:xlink="http://www.w3.org/1999/xlink" xmlns="http://www.w3.org/2000/svg" fill="none" viewBox="0 0 25 25" width="25" height="25" preserveAspectRatio="xMidYMid meet">
  <path stroke="#FFFFFF" stroke-linecap="round" stroke-linejoin="round" stroke-width="2px" d="M2.466 14.688v-3.5c0-2.8 0-4.2.545-5.27a5 5 0 0 1 2.185-2.185c1.07-.545 2.47-.545 5.27-.545h3.5c1.398 0 2.097 0 2.648.228a3 3 0 0 1 1.624 1.624c.207.5.226 1.123.228 2.28m-16 7.368c0 1.33 0 2.495.38 3.413a5 5 0 0 0 2.707 2.706c.707.293 1.56.36 2.978.376m-6.065-6.495c0-2.33 0-3.495.38-4.413a5 5 0 0 1 2.707-2.706c.919-.381 2.084-.381 4.413-.381h5c1.634 0 2.695 0 3.5.131m0 0c.343.056.64.136.914.25a5 5 0 0 1 2.706 2.706c.332.803.374 1.793.38 3.585m-3.035 3.328h.037a2.999 2.999 0 0 1 2.998 3c0 1.657-1.342 3-2.998 3h-.037m-3.93-6h-.037a2.999 2.999 0 0 0-2.998 3 3 3 0 0 0 2.998 3h.037m.962-3h1.999m-3.996-8h3" fill="none"></path>
</svg>