<svg width="22" height="22" viewBox="0 0 22 22" fill="none" xmlns="http://www.w3.org/2000/svg">
<path d="M5.5 7.33333H5.50917M5.5 11H5.50917M5.5 14.6667H5.50917M8.25 19.2399C6.83905 19.2129 5.96564 19.1138 5.25254 18.7504C4.39013 18.311 3.68897 17.6099 3.24955 16.7475C2.75 15.767 2.75 14.4836 2.75 11.9167V10.0833C2.75 7.51643 2.75 6.23297 3.24955 5.25254C3.68897 4.39013 4.39013 3.68897 5.25254 3.24955C5.96564 2.88621 6.83905 2.78714 8.25 2.76013C8.77894 2.75 9.38343 2.75 10.0833 2.75H11.9167C14.4836 2.75 15.767 2.75 16.7475 3.24955C17.6099 3.68897 18.311 4.39013 18.7504 5.25254C19.25 6.23297 19.25 7.51643 19.25 10.0833V11.9167C19.25 14.4836 19.25 15.767 18.7504 16.7475C18.311 17.6099 17.6099 18.311 16.7475 18.7504C15.767 19.25 14.4836 19.25 11.9167 19.25H10.0833C9.38343 19.25 8.77894 19.25 8.25 19.2399ZM8.25 2.76013V19.2399" stroke="#F1F3F4" stroke-width="2" stroke-linecap="round" stroke-linejoin="round"/>
<rect x="4" y="6" width="3" height="10" rx="1.5" fill="#1E1F20"/>
</svg>
